<?xml version="1.0" standalone="no"?>
<!DOCTYPE svg PUBLIC "-//W3C//DTD SVG 20010904//EN"
 "http://www.w3.org/TR/2001/REC-SVG-20010904/DTD/svg10.dtd">
<svg version="1.0" xmlns="http://www.w3.org/2000/svg"
 width="100.000000pt" height="76.000000pt" viewBox="0 0 100.000000 76.000000"
 preserveAspectRatio="xMidYMid meet">

<g transform="translate(0.000000,76.000000) scale(0.100000,-0.100000)"
fill="#000000" stroke="none">
<path d="M244 687 c-2 -7 -3 -107 -2 -222 l3 -210 30 -2 c25 -2 26 -1 7 5 -22
7 -23 8 -25 215 l-2 207 23 0 c13 0 20 4 17 10 -9 14 -45 12 -51 -3z"/>
<path d="M750 691 c0 -6 9 -11 20 -11 19 0 20 -7 20 -209 0 -209 0 -210 -22
-214 -20 -4 -19 -4 5 -6 l27 -1 -2 223 c-3 222 -3 222 -25 225 -13 2 -23 -1
-23 -7z"/>
<path d="M458 585 c-9 -21 -9 -35 2 -68 7 -23 14 -72 14 -109 l0 -68 52 0 52
0 -11 41 c-8 34 -7 52 7 93 10 28 16 69 14 91 l-3 40 -57 3 c-54 3 -59 1 -70
-23z m112 -16 c0 -17 -5 -20 -25 -17 -14 3 -28 1 -31 -3 -3 -5 9 -9 25 -9 35
0 37 -7 17 -64 -7 -22 -11 -57 -8 -78 4 -37 4 -38 -26 -38 -29 0 -30 1 -25 39
3 24 -1 59 -11 87 -11 34 -13 50 -5 55 8 5 8 8 0 13 -6 4 -11 14 -11 22 0 10
13 14 50 14 44 0 50 -2 50 -21z"/>
<path d="M110 150 c20 -13 33 -13 25 0 -3 6 -14 10 -23 10 -15 0 -15 -2 -2
-10z"/>
<path d="M355 100 c0 -40 4 -60 12 -60 7 0 10 6 7 14 -9 23 14 28 28 6 7 -11
17 -20 22 -20 5 0 2 8 -7 18 -21 23 -21 32 1 48 9 7 12 14 6 14 -6 0 -17 -7
-24 -15 -20 -24 -30 -17 -30 20 0 19 -3 35 -7 35 -5 0 -8 -27 -8 -60z"/>
<path d="M470 153 c0 -6 9 -20 20 -33 11 -13 20 -27 20 -32 0 -16 17 -8 28 15
11 19 12 17 9 -20 -1 -27 2 -43 9 -43 7 0 9 14 4 44 -4 25 -3 52 2 60 6 11 5
16 -2 16 -7 0 -17 -13 -23 -30 -13 -35 -23 -38 -32 -11 -7 22 -35 49 -35 34z"/>
<path d="M760 130 c-4 -8 -4 -31 0 -50 4 -27 10 -36 28 -38 12 -2 22 1 22 6 0
6 -9 8 -19 5 -17 -4 -20 1 -23 43 -2 27 -5 42 -8 34z"/>
<path d="M102 103 c-5 -16 -13 -36 -17 -45 -5 -13 -2 -18 8 -18 10 0 13 7 10
20 -4 16 0 20 20 20 30 0 46 -18 26 -31 -11 -6 -8 -9 8 -9 21 0 21 2 9 33 -24
58 -26 62 -22 40 3 -17 -1 -23 -14 -23 -13 0 -17 5 -13 20 8 30 -4 24 -15 -7z"/>
<path d="M230 110 c-17 -11 -5 -26 24 -32 11 -1 21 -9 24 -15 5 -17 -30 -17
-46 -1 -9 9 -12 9 -12 0 0 -14 44 -27 59 -17 20 11 11 34 -14 41 -33 8 -33 28
0 22 14 -3 25 -1 25 3 0 12 -41 11 -60 -1z"/>
<path d="M620 110 c-11 -7 -7 -9 15 -7 26 2 30 -1 29 -25 -1 -15 5 -29 12 -32
10 -4 11 1 4 19 -5 14 -7 25 -4 25 4 0 1 7 -6 15 -14 17 -29 19 -50 5z"/>
<path d="M882 108 c-15 -15 -15 -41 0 -56 14 -14 44 -16 52 -4 2 4 -8 8 -22 7
-22 0 -27 4 -27 25 0 20 5 25 25 25 15 0 24 -5 22 -13 -1 -8 2 -11 8 -7 8 5 7
11 -1 21 -14 17 -41 18 -57 2z"/>
<path d="M480 87 c0 -13 -5 -28 -12 -35 -9 -9 -8 -12 8 -12 17 0 19 5 16 35
-5 40 -12 47 -12 12z"/>
<path d="M620 75 c-14 -17 -5 -35 18 -35 13 0 13 2 -3 14 -18 13 -18 13 1 24
10 6 14 12 8 12 -6 0 -17 -7 -24 -15z"/>
<path d="M898 83 c7 -3 16 -2 19 1 4 3 -2 6 -13 5 -11 0 -14 -3 -6 -6z"/>
</g>
</svg>
